<svg width="167" height="173" viewBox="0 0 167 173" fill="none" xmlns="http://www.w3.org/2000/svg">
<path d="M159.186 63.384C159.078 63.2757 159.006 63.1193 159.006 62.9629V6.02956C159.006 0.676646 152.522 -2.01786 148.733 1.77129L114.39 36.1142C112.983 37.5216 112.983 39.8071 114.39 41.2145L140.698 67.5219C148.216 75.0401 148.216 87.2255 140.698 94.7436L120.369 115.073C120.369 115.073 120.333 115.121 120.309 115.133L117.434 118.008C112.947 122.495 111.515 128.882 113.151 134.572C113.151 134.62 113.175 134.668 113.188 134.728C113.188 134.728 113.188 134.74 113.188 134.752C113.368 135.654 113.669 136.472 114.126 137.182C115.208 139.407 118.168 139.901 119.924 138.144L133.865 124.203L145.185 112.883H145.173L159.138 98.9057C168.954 89.09 168.954 73.1876 159.138 63.3719L159.186 63.384ZM143.019 45.7494C143.019 46.2907 142.37 46.5554 141.997 46.1704L134.924 39.0853C134.683 38.8447 134.683 38.4718 134.924 38.2313L141.997 31.1462C142.37 30.7612 143.019 31.0379 143.019 31.5672V45.7253V45.7494Z" fill="#FB923C"/>
<path d="M73.3733 55.6865C70.2217 52.5349 63.9185 52.5349 60.7669 55.6865C57.6153 58.8381 57.6153 63.9384 60.7669 67.09C63.9185 70.2416 70.2217 70.2416 73.3733 67.09C76.5249 63.9384 76.5249 58.8381 73.3733 55.6865Z" fill="#FB923C"/>
<path d="M106.247 55.6865C103.095 52.5349 97.995 52.5349 94.8434 55.6865C91.6918 58.8381 91.6918 63.9384 94.8434 67.09C97.995 70.2416 103.095 70.2416 106.247 67.09C109.399 63.9384 109.399 58.8381 106.247 55.6865Z" fill="#FB923C"/>
<path d="M7.82565 63.384C7.93391 63.2757 8.00608 63.1193 8.00608 62.9629V6.02956C7.99406 0.676646 14.4777 -2.01786 18.2668 1.77129L52.6096 36.1142C54.0169 37.5216 54.0169 39.8071 52.6096 41.2145L26.3022 67.5219C18.7841 75.0401 18.7841 87.2255 26.3022 94.7436L46.6311 115.073C46.6311 115.073 46.6672 115.121 46.6913 115.133L49.5662 118.008C54.053 122.495 55.4845 128.882 53.8485 134.572C53.8485 134.62 53.8245 134.668 53.8125 134.728C53.8125 134.728 53.8125 134.74 53.8125 134.752C53.632 135.654 53.3313 136.472 52.8742 137.182C51.7916 139.407 48.8325 139.901 47.0762 138.144L33.1346 124.203L21.8154 112.883H21.8274L7.86174 98.9057C-1.95391 89.09 -1.95391 73.1876 7.86174 63.3719L7.82565 63.384ZM23.9926 45.7494C23.9926 46.2907 24.6422 46.5554 25.0151 46.1704L32.0881 39.0853C32.3287 38.8447 32.3287 38.4718 32.0881 38.2313L25.0151 31.1462C24.6422 30.7612 23.9926 31.0379 23.9926 31.5672V45.7253V45.7494Z" fill="#FB923C"/>
<path d="M101.135 147.309C97.3942 141.848 90.6459 142.774 86.2433 149.583C84.9081 151.652 81.9008 151.772 80.4333 149.787C75.4774 143.087 68.4284 142.582 65.782 147.429C62.1974 153.973 68.0916 159.182 69.8478 160.938L77.414 168.504L79.2665 170.357C81.6121 172.702 85.4253 172.702 87.771 170.357L89.6234 168.504L97.1776 160.95C98.9339 159.194 105.261 153.348 101.135 147.321V147.309Z" fill="#FB923C"/>
<path d="M126.973 79.154C120.718 76.1828 113.019 77.2895 107.847 82.462L103.408 86.9007L103.36 86.8766L100.81 89.4268C95.9742 94.2624 95.9742 102.105 100.81 106.941C102.217 108.348 104.503 108.348 105.91 106.941L111.431 101.42L111.455 101.468L114.006 98.9177L127.959 84.976C129.715 83.2198 129.222 80.2246 126.973 79.154Z" fill="#FB923C"/>
<path d="M66.2272 89.4234L63.677 86.8733L63.6289 86.8973L59.1902 82.4586C54.0178 77.2741 46.3072 76.1674 40.0641 79.1506C37.8147 80.2212 37.3095 83.2044 39.0778 84.9727L53.0314 98.9143L55.5815 101.464L55.6056 101.416L61.1269 106.938C62.5343 108.345 64.8198 108.345 66.2272 106.938C71.0628 102.102 71.0628 94.2591 66.2272 89.4234Z" fill="#FB923C"/>
</svg>
