<svg width="83" height="77" viewBox="0 0 83 77" fill="none" xmlns="http://www.w3.org/2000/svg">
<path d="M81.8016 35.1635L74.9941 28.356C74.9457 28.3076 74.9134 28.2376 74.9134 28.1677V2.69744C74.9134 0.302711 72.0128 -0.902727 70.3176 0.792419L54.9537 16.1564C54.3241 16.786 54.3241 17.8085 54.9537 18.4381L66.7229 30.2072C70.0862 33.5706 70.0862 39.022 66.7229 42.3854L57.6283 51.48C57.6283 51.48 57.6121 51.5015 57.6014 51.5069L56.3152 52.793C54.3079 54.8003 53.6675 57.6579 54.3994 60.2033C54.3994 60.2248 54.4102 60.2463 54.4156 60.2732C54.4156 60.2732 54.4156 60.2786 54.4156 60.284C54.4963 60.6876 54.6308 61.0535 54.8353 61.371C55.3196 62.3666 56.6435 62.5872 57.4292 61.8015L63.6662 55.5645L68.7301 50.5006H68.7247L81.7801 37.4399C82.4097 36.8102 82.4097 35.7878 81.7801 35.1581L81.8016 35.1635ZM67.7615 20.4669C67.7615 20.709 67.4709 20.8274 67.3041 20.6552L64.1398 17.4856C64.0322 17.3779 64.0322 17.2111 64.1398 17.1035L67.3041 13.9338C67.4709 13.7616 67.7615 13.8854 67.7615 14.1222V20.4561V20.4669Z" fill="#262626"/>
<path d="M33.4011 47.8422H33.3957C32.7661 48.4772 31.7436 48.4772 31.114 47.8476L24.8985 41.632C22.5791 39.3126 22.084 35.8631 23.4186 33.0702C23.8975 32.0639 25.2321 31.8378 26.0178 32.6235L32.2549 38.8606L33.4011 40.0068C35.5644 42.1702 35.5644 45.6788 33.4011 47.8422Z" fill="#262626"/>
<path d="M57.3699 41.6266L55.072 43.9245L51.1543 47.8422C50.5247 48.4718 49.5022 48.4718 48.8726 47.8422C46.7093 45.6788 46.7093 42.1702 48.8726 40.0068L50.0135 38.866L56.2505 32.6235C57.0362 31.8378 58.3762 32.0585 58.8551 33.0648C60.1844 35.8631 59.6893 39.3072 57.3753 41.6213L57.3699 41.6266Z" fill="#262626"/>
<path d="M36.0649 24.9119C34.655 23.502 32.3733 23.502 30.9633 24.9119C29.5534 26.3219 29.5534 28.6036 30.9633 30.0135C32.3733 31.4235 34.655 31.4235 36.0649 30.0135C37.4748 28.6036 37.4748 26.3219 36.0649 24.9119Z" fill="#262626"/>
<path d="M51.3104 24.9119C49.9005 23.502 47.6187 23.502 46.2088 24.9119C44.7989 26.3219 44.7989 28.6036 46.2088 30.0135C47.6187 31.4235 49.9005 31.4235 51.3104 30.0135C52.7203 28.6036 52.7203 26.3219 51.3104 24.9119Z" fill="#262626"/>
<path d="M0.472219 35.1635L7.27971 28.356C7.32814 28.3076 7.36043 28.2376 7.36043 28.1677V2.69744C7.36043 0.302711 10.261 -0.902727 11.9562 0.792419L27.3201 16.1564C27.9497 16.786 27.9497 17.8085 27.3201 18.4381L15.5509 30.2072C12.1876 33.5706 12.1876 39.022 15.5509 42.3854L24.6455 51.48C24.6455 51.48 24.6617 51.5015 24.6725 51.5069L25.9586 52.793C27.9659 54.8003 28.6063 57.6579 27.8744 60.2033C27.8744 60.2248 27.8636 60.2463 27.8582 60.2732C27.8582 60.2732 27.8582 60.2786 27.8582 60.284C27.7775 60.6876 27.643 61.0535 27.4385 61.371C26.9542 62.3666 25.6303 62.5872 24.8447 61.8015L18.6076 55.5645L13.5437 50.5006H13.5491L0.472219 37.4452C-0.157406 36.8156 -0.157406 35.7932 0.472219 35.1635ZM14.5123 20.4669C14.5123 20.709 14.8029 20.8274 14.9698 20.6552L18.134 17.4856C18.2417 17.3779 18.2417 17.2111 18.134 17.1035L14.9698 13.9338C14.8029 13.7616 14.5123 13.8854 14.5123 14.1222V20.4561V20.4669Z" fill="#262626"/>
<path d="M49.0233 65.9021C46.8439 63.7226 43.4589 65.703 41.1396 67.9901C38.8202 65.703 35.3814 63.7818 33.202 65.9559C30.8395 68.3184 34.2352 71.2136 35.0209 71.9992L38.4058 75.3842L39.2345 76.2129C40.2839 77.2623 41.9898 77.2623 43.0392 76.2129L43.8679 75.3842L47.2475 72.0046C48.0332 71.2189 51.3266 68.2161 49.018 65.9075L49.0233 65.9021Z" fill="#262626"/>
</svg>
